<?xml version="1.0" encoding="utf-8"?>
<!-- Generator: Adobe Illustrator 26.0.1, SVG Export Plug-In . SVG Version: 6.00 Build 0)  -->
<svg version="1.1" id="Layer_1" xmlns="http://www.w3.org/2000/svg" xmlns:xlink="http://www.w3.org/1999/xlink" x="0px" y="0px"
	 viewBox="0 0 427.2 127.7" style="enable-background:new 0 0 427.2 127.7;" xml:space="preserve">
<style type="text/css">
	.st0{fill:url(#Rounded_Rectangle_1_copy_00000024680889389172564990000008310337780635062684_);}
	.st1{fill:#1D396D;}
	.st2{fill:url(#Gradient_Overlay_00000003106769146750908330000006574434507487070876_);}
	.st3{enable-background:new    ;}
</style>
<g id="logo_copy" transform="translate(-428.698 -160.098)">
	
		<linearGradient id="Rounded_Rectangle_1_copy_00000030486763918883685670000014971037151562058684_" gradientUnits="userSpaceOnUse" x1="678.0973" y1="6.3249" x2="676.5973" y2="5.0449" gradientTransform="matrix(125.387 0 0 127.6846 -84439.1641 -501.8933)">
		<stop  offset="0" style="stop-color:#22DCFD"/>
		<stop  offset="0.5" style="stop-color:#1C91E2"/>
		<stop  offset="1" style="stop-color:#5865B9"/>
	</linearGradient>
	
		<path id="Rounded_Rectangle_1_copy" style="fill:url(#Rounded_Rectangle_1_copy_00000030486763918883685670000014971037151562058684_);" d="
		M530,287.8c-1.3,0-2.5-1-2.5-2.4c0-1.3,1-2.5,2.4-2.5h0.1h9.3c5.4,0,9.8-4.3,9.9-9.8v-6.7c0-1.4,1.2-2.4,2.5-2.4s2.4,1.1,2.4,2.4
		v6.7c-0.1,8.1-6.7,14.7-14.8,14.7L530,287.8z M443.5,287.8c-8.1,0-14.8-6.5-14.8-14.7v-6.7c0-1.4,1.2-2.4,2.5-2.4s2.4,1.1,2.4,2.4
		v6.7c0,5.4,4.5,9.8,9.9,9.8h9.3c1.3,0,2.5,1,2.5,2.4c0,1.3-1,2.5-2.4,2.5h-0.1L443.5,287.8z M549.1,181.5v-6.7
		c0-5.4-4.5-9.8-9.9-9.8H530c-1.3,0-2.4-1.1-2.4-2.4s1.1-2.4,2.4-2.4h9.3c8.1,0,14.8,6.5,14.8,14.7v6.7c0,1.4-1.2,2.4-2.5,2.4
		C550.2,183.9,549.2,182.8,549.1,181.5z M428.7,181.5v-6.7c0.1-8.1,6.7-14.7,14.8-14.7h9.3c1.3,0,2.4,1.1,2.4,2.4s-1.1,2.4-2.4,2.4
		h-9.3c-5.4,0-9.8,4.3-9.9,9.8v6.7c0,1.4-1.2,2.4-2.5,2.4C429.8,183.9,428.7,182.8,428.7,181.5L428.7,181.5z"/>
	<path id="Rounded_Rectangle_1_copy_4" class="st1" d="M512.5,275c-1.3-2.2-3.1-5.3-7.3-6.4c-4.9-1.4-9.7,0.9-14.4,3
		c-2.1,1-4.2,1.9-6.4,2.6c-1,0.3-4,1.1-6.6-3.3c-1.1-1.9-1.1-4.6,0-7.6c1.3-3.5,0.5-5.4-0.4-6.4c-1-1.1-2.6-1.5-4-1
		c-0.3,0.1-0.6,0.1-0.9,0c0-0.1,0-0.2,0-0.3c0.5-0.3,1.1-0.4,1.7-0.4c1,0,2-0.5,2.6-1.3c0.3-0.7,0.3-1.6-0.1-2.3
		c-0.7-1.7-2.1-3.3-6.9-4l0,0c1-1.5,1.2-3.5,0.3-5.1c-1-2.2-2.5-2.7-4.8-3.5c-0.6-0.2-1.2-0.4-2-0.7c-1.2-0.4-2.2-1.3-2.6-2.5
		c-0.1-0.9,0.2-1.9,0.9-2.5c0.4-0.4,0.9-0.9,1.5-1.5c3.9-3.9,10.4-10.4,10.7-17.9c0.1-3.1-0.5-6.2-1.7-9.1
		c-1.6-3.7-2.1-7.7-1.5-11.7c1.6-11.8,4.8-17.1,5.7-18.3c6.3-3.2,11.2-0.2,13.8,3.8c2.3,3.5,2.7,11.3,0.8,15.4
		c-0.9,1.9,0,2.8,0.6,3.2c1.7,1.1,2.7,0,4.9-2.4c0.4-0.4,0.8-0.9,1.3-1.4c1.2,4.6,3.9,12.7,11.2,17.1c1,0.6,2.3,0.3,2.9-0.7
		s0.3-2.3-0.7-2.9l0,0c-6.9-4.2-8.9-12.7-9.7-16.4c-0.4-1.8-0.6-2.9-2-3.2c-0.8-0.2-1.6,0-2.2,0.5c-0.3,0.3-0.6,0.6-0.9,0.9
		c0.2-4.5-0.7-9.3-2.7-12.4c-3.8-5.8-11.4-9.6-19.9-5c-0.2,0.1-0.4,0.3-0.6,0.5s-4.8,5.8-6.8,20.8c-0.7,4.6-0.1,9.3,1.7,13.7
		c1,2.4,1.5,4.9,1.5,7.5c-0.2,5.9-6,11.7-9.5,15.1c-0.6,0.6-1.1,1.1-1.6,1.6c-1.7,1.6-2.4,4-2,6.3c0.7,2.6,2.7,4.6,5.2,5.5
		c0.8,0.3,1.5,0.6,2.1,0.8c2,0.7,2.1,0.8,2.3,1.3c0.3,0.7,0.2,0.8-0.3,1.4c-0.9,1-1.2,2.4-0.8,3.6c0.5,1.4,1.9,2.2,4.1,2.5
		c0.4,0.1,0.8,0.1,1.1,0.2c-1,0.6-1.8,1.6-2,2.8c-0.4,1.5,0,3.1,1.2,4.2c1.3,1.1,3,1.6,4.7,1.1c0,0.6-0.2,1.2-0.4,1.8
		c-2,5.5-1,9.1,0.3,11.2c2.7,4.7,6.8,6.6,11.4,5.3c2.4-0.7,4.8-1.7,7.1-2.8c4.1-1.9,8.1-3.7,11.5-2.8c2.5,0.7,3.6,2.6,4.7,4.5
		l0.4,0.7c0.6,1,1.9,1.3,2.9,0.7c1-0.6,1.3-1.9,0.7-2.9l0,0L512.5,275z"/>
	
		<linearGradient id="Gradient_Overlay_00000104675299251957522680000001652663235598624411_" gradientUnits="userSpaceOnUse" x1="678.7404" y1="10.9905" x2="677.2864" y2="9.4905" gradientTransform="matrix(81.5928 0 0 68.7376 -54751.9375 -471.5807)">
		<stop  offset="0" style="stop-color:#22DCFD"/>
		<stop  offset="0.5" style="stop-color:#1C91E2"/>
		<stop  offset="1" style="stop-color:#5865B9"/>
	</linearGradient>
	<path id="Gradient_Overlay" style="fill:url(#Gradient_Overlay_00000104675299251957522680000001652663235598624411_);" d="
		M541.9,259.1c-1.1,0-2.1-0.3-3-0.8s-1.4-1.4-1.4-2.4v-62.1c0-1,0.5-2,1.4-2.4c0.9-0.6,1.9-0.8,3-0.8h33.5c1.1-0.1,2,0.5,2.5,1.4
		s0.7,1.9,0.8,2.9c0,1.1-0.3,2.2-0.8,3.1c-0.5,0.9-1.4,1.4-2.4,1.4h-27.9v21.5H562c1,0,1.9,0.4,2.4,1.2c0.6,0.8,0.9,1.8,0.8,2.8
		c0,0.9-0.3,1.8-0.8,2.6c-0.5,0.9-1.5,1.4-2.5,1.3h-14.5v21.6h27.9c1,0,1.9,0.5,2.4,1.3c0.6,1,0.9,2.1,0.8,3.2c0,1-0.3,2-0.8,2.9
		s-1.5,1.5-2.5,1.4L541.9,259.1z M585.7,259.1c-1.3,0.1-2.5-0.3-3.5-1c-0.8-0.5-1.3-1.3-1.4-2.3v-38.1c0-1,0.5-1.8,1.4-2.3
		c1.1-0.6,2.3-0.9,3.5-0.9c1.1,0,2.2,0.3,3.1,0.9c0.8,0.5,1.3,1.4,1.3,2.3v3.4c2.5-4.5,7.4-7.3,12.6-7.1c2.9,0,5.7,0.9,8.1,2.5
		c2.5,1.7,4.6,4,6,6.7c1.5,2.9,2.3,6.1,2.3,9.4v23.3c0,1-0.6,2-1.6,2.4c-1.1,0.6-2.2,0.9-3.4,0.8c-1.1,0-2.3-0.3-3.3-0.8
		c-1-0.4-1.6-1.4-1.6-2.4v-23.3c0-1.7-0.4-3.3-1.3-4.7c-0.8-1.5-2-2.7-3.4-3.7c-2.8-1.8-6.3-1.9-9.1-0.2c-1.4,0.8-2.6,2-3.4,3.3
		c-0.9,1.6-1.4,3.4-1.3,5.3v23.3c-0.1,0.9-0.6,1.8-1.5,2.3C588.2,258.8,587,259.2,585.7,259.1L585.7,259.1z"/>
	<g class="st3">
		<path class="st1" d="M645.8,260.7c-3.5,0-6.6-0.6-9.4-1.9c-2.8-1.3-5.1-3.3-6.7-6.1c-1.7-2.8-2.5-6.6-2.5-11.2v-27.9
			c0-4.6,0.8-8.3,2.5-11.2c1.6-2.8,3.9-4.9,6.7-6.1c2.8-1.3,6-1.9,9.5-1.9s6.7,0.6,9.5,1.9c2.8,1.3,5.1,3.3,6.8,6.1
			s2.5,6.5,2.5,11.2v27.9c0,4.7-0.8,8.4-2.5,11.2s-3.9,4.9-6.8,6.1C652.5,260.1,649.3,260.7,645.8,260.7z M645.8,255.2
			c4,0,7.2-1.1,9.5-3.3s3.4-5.7,3.4-10.4v-27.9c0-4.7-1.1-8.1-3.4-10.3c-2.3-2.2-5.4-3.3-9.5-3.3c-4,0-7.1,1.1-9.4,3.3
			c-2.2,2.2-3.3,5.7-3.3,10.3v27.9c0,4.7,1.1,8.2,3.3,10.4C638.6,254.1,641.7,255.2,645.8,255.2z"/>
		<path class="st1" d="M692.7,260.8c-3.2,0-6.1-0.8-8.6-2.3c-2.6-1.6-4.7-3.6-6.2-6.3c-1.6-2.6-2.3-5.4-2.3-8.3v-24
			c0-0.5,0.3-1,0.9-1.5c0.6-0.5,1.3-0.7,2.1-0.7s1.5,0.2,2,0.7c0.6,0.5,0.9,1,0.9,1.5v24c0,2,0.5,3.8,1.5,5.6c1,1.7,2.4,3.2,4,4.3
			s3.6,1.7,5.7,1.7c2.2,0,4.1-0.5,5.8-1.6s3-2.5,4-4.3s1.5-3.6,1.5-5.6v-24.1c0-0.6,0.3-1.1,0.9-1.5c0.6-0.4,1.3-0.6,2.1-0.6
			c0.9,0,1.6,0.2,2.1,0.6c0.5,0.4,0.8,0.9,0.8,1.5V244c0,3.1-0.8,5.9-2.3,8.4c-1.5,2.6-3.6,4.6-6.2,6.2
			C698.6,260,695.8,260.8,692.7,260.8z"/>
		<path class="st1" d="M730,260.8c-3.4,0-6.2-1-8.6-2.9c-2.4-1.9-3.6-4.9-3.6-9c0-3.3,0.9-5.8,2.7-7.6s4.2-3,7.4-3.7
			c3.1-0.7,6.8-1,10.9-1h4.6v-2.2c0-1.9-0.3-3.8-1-5.7s-1.8-3.4-3.3-4.7c-1.5-1.2-3.6-1.8-6.3-1.8c-2,0-3.6,0.2-4.9,0.6
			c-1.3,0.4-2.2,0.9-3,1.3c-0.7,0.5-1.3,0.7-1.8,0.7c-0.7,0-1.3-0.4-1.7-1.1c-0.4-0.7-0.6-1.4-0.6-2.1c0-0.8,0.6-1.5,1.8-2.2
			s2.8-1.3,4.7-1.7c1.9-0.5,3.8-0.7,5.6-0.7c4,0,7.2,0.8,9.6,2.5c2.4,1.7,4.1,3.8,5.1,6.4c1,2.6,1.6,5.5,1.6,8.5v23.4
			c0,0.7-0.3,1.2-0.8,1.7s-1.2,0.7-2.1,0.7c-0.7,0-1.3-0.2-1.9-0.7s-0.8-1-0.8-1.7v-4c-1.6,1.7-3.5,3.3-5.7,4.8
			C735.7,260.1,733.1,260.8,730,260.8z M731.4,255.8c2,0,3.9-0.5,5.7-1.5s3.3-2.3,4.5-3.7c1.2-1.5,1.8-2.9,1.8-4.2v-5.8h-3.8
			c-2.7,0-5.3,0.2-7.7,0.5s-4.4,1-5.9,2.1s-2.3,2.8-2.3,5.1c0,2.6,0.8,4.5,2.3,5.7C727.4,255.2,729.3,255.8,731.4,255.8z"/>
		<path class="st1" d="M763.7,260.1c-0.8,0-1.5-0.2-2-0.7c-0.6-0.5-0.9-1-0.9-1.6v-64.2c0-0.7,0.3-1.2,0.9-1.6
			c0.6-0.4,1.2-0.6,2-0.6s1.5,0.2,2.1,0.6c0.6,0.4,0.9,0.9,0.9,1.6v64.2c0,0.6-0.3,1.1-0.9,1.6C765.2,259.9,764.5,260.1,763.7,260.1
			z"/>
		<path class="st1" d="M781.6,205c-1.1,0-2-0.4-2.8-1.1c-0.8-0.8-1.2-1.6-1.2-2.7c0-1,0.4-1.9,1.2-2.6c0.8-0.7,1.7-1.1,2.8-1.1
			s2.1,0.4,2.8,1.1c0.8,0.7,1.1,1.6,1.1,2.6s-0.4,1.9-1.1,2.7C783.6,204.6,782.7,205,781.6,205z M781.6,260.1c-0.8,0-1.5-0.2-2-0.7
			c-0.6-0.5-0.9-1-0.9-1.6v-38.1c0-0.7,0.3-1.2,0.9-1.6c0.6-0.4,1.2-0.6,2-0.6s1.5,0.2,2.1,0.6c0.6,0.4,0.9,0.9,0.9,1.6v38.1
			c0,0.6-0.3,1.1-0.9,1.6C783.1,259.9,782.4,260.1,781.6,260.1z"/>
		<path class="st1" d="M798.6,260.1c-0.8,0-1.4-0.2-2-0.6c-0.5-0.4-0.8-1-0.8-1.6V208c0-3.1,0.7-5.8,2.2-8.3s3.4-4.5,5.9-6
			c2.4-1.5,5.1-2.2,8-2.2h2.2c0.8,0,1.5,0.3,1.9,0.8s0.6,1.2,0.6,1.9s-0.2,1.3-0.6,1.8c-0.4,0.5-1.1,0.8-1.9,0.8h-1.5
			c-2,0-3.9,0.5-5.5,1.5c-1.7,1-2.9,2.3-3.9,4c-0.9,1.7-1.4,3.4-1.5,5.4v10h12.9c0.7,0,1.2,0.2,1.5,0.7c0.4,0.5,0.5,1,0.5,1.6
			c0,0.7-0.2,1.2-0.5,1.8c-0.4,0.5-0.9,0.8-1.5,0.8h-12.9v35.5c0,0.7-0.3,1.2-0.9,1.6C800.1,259.9,799.4,260.1,798.6,260.1z"/>
		<path class="st1" d="M821.6,281c-0.8,0-1.4-0.2-1.9-0.6s-0.8-1.1-0.8-2c0-0.7,0.1-1.3,0.4-1.9c0.3-0.5,0.7-0.8,1.4-0.8
			c1.4,0,2.8-0.5,4.1-1.4s2.5-2.2,3.7-3.8c1.1-1.7,2.2-3.5,3.1-5.6c0.9-2.1,1.6-4.3,2.2-6.6l-14.7-37.7c-0.2-0.3-0.3-0.6-0.3-0.8
			c0-0.5,0.2-1,0.6-1.4c0.4-0.4,0.9-0.8,1.4-1c0.6-0.2,1.1-0.4,1.6-0.4s0.9,0.1,1.3,0.3c0.4,0.2,0.6,0.5,0.8,0.9l12.3,33.1
			l11.6-33.1c0.2-0.4,0.5-0.7,0.8-0.9c0.4-0.2,0.7-0.3,1.2-0.3s1,0.1,1.6,0.4c0.6,0.2,1,0.6,1.4,1s0.6,0.9,0.6,1.5
			c0,0.3-0.1,0.5-0.2,0.7l-14,37.8c-0.9,2.4-1.9,4.9-2.9,7.6c-1,2.6-2.2,5.1-3.6,7.3c-1.3,2.2-3,4.1-4.9,5.5
			C826.6,280.3,824.3,281,821.6,281z"/>
	</g>
	<g class="st3">
		<path class="st1" d="M650.1,246.2c-0.4-0.4-0.6-1-0.6-1.6s0.3-1.2,0.9-1.8c0.5-0.5,1.1-0.8,1.8-0.9c0.7-0.1,1.2,0.1,1.6,0.5
			l20.4,20.4c0.4,0.4,0.6,1,0.6,1.7s-0.3,1.3-0.8,1.8c-0.6,0.6-1.2,0.8-1.8,0.8c-0.7,0-1.2-0.2-1.7-0.6L650.1,246.2z"/>
	</g>
</g>
</svg>
